<svg width="153" height="149" viewBox="0 0 153 149" fill="none" xmlns="http://www.w3.org/2000/svg">
<path d="M74.5 149C115.645 149 149 115.645 149 74.5C149 33.3548 115.645 0 74.5 0C33.3548 0 0 33.3548 0 74.5C0 115.645 33.3548 149 74.5 149Z" fill="#B99BFE"/>
<path d="M111.962 33.5874C112.375 31.8554 112.644 30.5184 113.019 29.2224C113.243 28.7383 113.302 28.1942 113.187 27.6733C113.073 27.1524 112.791 26.6833 112.385 26.3374C111.996 25.971 111.688 25.527 111.482 25.0342C111.275 24.5414 111.174 24.0107 111.185 23.4764C111.318 22.7224 112.549 21.8764 113.449 21.6244C114.716 21.4198 116.001 21.3528 117.282 21.4244C117.705 21.4004 118.274 21.3734 118.496 21.1104C118.673 20.8994 118.551 20.2574 118.349 19.9374C117.701 18.8874 117.227 17.6374 118.243 16.8374C119.249 16.0619 120.479 15.6304 121.749 15.6064C122.575 15.6783 123.367 15.9689 124.044 16.4483C124.721 16.9278 125.257 17.5788 125.599 18.3344C125.986 18.9965 126.537 19.5476 127.199 19.9344C127.462 20.0774 128.389 19.6444 128.536 19.2794C129.279 17.4514 129.743 17.1274 131.836 17.4204C134.025 17.7204 135.014 18.6204 135.048 20.4524C135.048 21.2334 134.925 22.0144 134.837 23.0104C135.346 22.9655 135.859 22.9655 136.368 23.0104C136.998 23.0461 137.601 23.2795 138.091 23.6775C138.581 24.0756 138.932 24.6179 139.096 25.2274C139.41 26.5274 139.236 27.9274 137.996 28.5274C136.823 29.0934 136.714 29.9594 136.54 30.9454C136.383 31.8354 136.24 32.7254 136.1 33.6084C138.276 34.4334 138.4 35.4944 136.67 38.1334C138.034 40.2444 137.86 40.8614 135.378 41.4484C134.715 41.5343 134.083 41.7829 133.539 42.172C132.996 42.561 132.556 43.0786 132.261 43.6784C131.928 44.2748 131.51 44.8192 131.02 45.2944C129.277 47.2244 127.432 47.6814 125.079 46.5354C123.517 45.7785 122.085 44.7514 120.479 43.7734C118.17 46.0244 115.667 48.3805 113.222 50.7985C113.093 50.9982 113.006 51.2222 112.967 51.4568C112.928 51.6914 112.937 51.9316 112.994 52.1624C114.471 59.2424 113.222 66.0834 110.948 72.7624C110.303 74.6624 108.864 76.3094 107.715 78.0244C106.665 79.4638 105.697 80.9608 104.815 82.5085C107.015 81.0965 109.177 79.6334 111.404 78.2764C118.293 74.0764 125.089 69.7504 131.183 64.4074C131.496 64.0117 131.657 63.5168 131.637 63.0124C131.719 59.9194 132.483 59.1524 135.613 59.0564C136.05 59.0951 136.486 58.974 136.841 58.7155C138.512 56.9835 140.118 55.1854 141.748 53.4154C139.19 48.7094 144.377 42.5024 148.603 42.0864C149.124 42.0201 149.653 42.0625 150.157 42.211C150.661 42.3595 151.128 42.6108 151.53 42.9491C151.932 43.2874 152.259 43.7053 152.491 44.1764C152.724 44.6476 152.856 45.1617 152.879 45.6864C153.148 50.3004 148.787 54.7094 144.166 54.6045C143.627 54.6045 142.976 55.2384 142.556 55.7334C142.215 56.1254 142.215 56.7834 141.966 57.2644C141.683 57.7252 141.366 58.1642 141.018 58.5774C141.059 58.7104 141.059 58.7774 141.093 58.8164C144.393 62.3734 144.393 62.5674 141.151 66.1994C139.927 67.4453 138.943 68.9069 138.251 70.5104C134.654 79.8672 129.168 88.3824 122.134 95.5244C117.667 99.9574 112.634 103.419 106.498 105.107C106.181 105.196 105.874 105.325 105.298 105.526C105.775 106.099 106.137 106.549 106.522 106.992C110.785 111.804 114.928 116.728 117.878 122.478C118.951 124.664 119.739 126.978 120.221 129.364C120.903 132.539 119.198 134.848 115.941 135.318C111.675 135.935 107.576 134.957 103.579 133.579C92.55 129.779 82.436 124.126 72.679 117.865C53.855 105.799 36.421 92.0014 21.321 75.4454C16.049 69.6654 11.021 63.5914 8.127 56.1404C7.61674 54.8253 7.29294 53.4453 7.165 52.0404C6.885 48.7874 8.529 46.8974 11.772 46.4744C15.8652 46.0403 20.0012 46.671 23.779 48.3054C29.093 50.4324 34.3 52.8325 39.508 55.2155C39.948 55.4983 40.4649 55.6381 40.9875 55.6155C41.5101 55.5929 42.013 55.4092 42.427 55.0895C57.2884 44.8857 74.419 38.4702 92.327 36.4014C96.239 35.9104 100.256 36.2374 104.222 36.1554C105.004 36.1811 105.784 36.0763 106.531 35.8454C108.528 35.0914 110.492 34.2084 111.962 33.5874ZM126.285 69.5104C125.804 69.8104 125.47 70.0104 125.143 70.2304C117.743 75.0934 110.326 79.9394 102.943 84.8394C101.743 85.6395 101.098 85.4264 100.679 84.1234C100.279 82.8824 99.816 81.6574 99.506 80.3924C99.2268 79.1267 99.1997 77.8184 99.4262 76.5421C99.6526 75.2659 100.128 74.0468 100.826 72.9544C100.471 74.9371 100.114 76.9194 99.755 78.9014L100.355 79.1534C103.469 76.1144 106.637 73.1274 109.655 70.0034C110.678 69.0143 111.436 67.7845 111.861 66.4264C112.959 62.2931 113.189 57.9771 112.536 53.7504C112.375 52.4563 111.713 51.2771 110.691 50.4664C107.614 47.9626 105.61 44.3767 105.091 40.4434C104.917 39.3354 104.839 38.2094 104.712 37.0334C104.327 36.9784 103.999 36.9244 103.672 36.8864C101.411 36.6344 101.418 36.6374 101.367 38.9324C101.227 45.1694 104.041 49.6814 109.402 52.7134L111.148 53.7364L110.913 54.0774C108.455 53.1005 106.258 51.5638 104.498 49.5895C101.298 45.9405 100.406 41.6024 100.921 36.5694C68.931 37.8194 43.181 51.8764 20.779 73.7974C38.279 92.7144 58.254 108.24 80.097 121.435L88.82 102.621L88.581 102.495C87.009 105.53 85.44 108.562 83.667 111.995C83.67 111.348 83.6289 110.701 83.544 110.058C83.094 108.087 82.644 106.116 82.105 104.169C81.3661 102.118 80.7533 100.024 80.27 97.8984C80.0908 95.681 79.1371 93.5973 77.576 92.0125C76.9003 91.4136 76.3757 90.6636 76.045 89.8234C74.995 86.6234 75.645 83.4874 76.601 79.9884C77.001 81.3185 77.283 82.2664 77.573 83.2144L77.825 83.1635L77.521 77.7324L77.934 77.6884C78.019 78.2615 78.115 78.8344 78.186 79.4104C78.486 81.7704 78.455 84.2294 79.137 86.4734C81.204 93.2465 85.504 98.5354 90.892 103.002C92.5529 104.314 94.5788 105.08 96.692 105.195C106.36 106.143 114.2 102.295 120.973 95.8484C126.873 90.2254 131.251 83.4594 134.973 76.2565C136.054 74.1665 136.934 71.9765 137.773 70.1185L130.953 65.5324L126.861 69.0514C128.262 72.0864 130.749 74.4866 133.832 75.7794C130.343 74.9604 128.205 72.4954 126.285 69.5114V69.5104ZM118.1 39.3704C118.7 40.1244 119.075 40.5914 119.447 41.0754C121.023 43.3112 123.175 45.0787 125.674 46.1904C128.061 47.1244 130.039 46.3334 131.158 43.8034L126.858 42.4904L126.977 42.0644L131.932 43.4284C132.332 40.3594 135.605 41.6794 137.358 39.8174C136.658 39.4014 136.113 38.8174 135.547 38.7944C134.207 38.7364 134.07 37.9354 134.159 36.9634C134.271 36.3811 134.436 35.8103 134.653 35.2584C132.307 33.8584 129.964 32.4894 127.653 31.0704C127.115 30.7844 126.655 30.3698 126.316 29.8634C126.1 29.3635 125.717 28.9541 125.232 28.7053C124.747 28.4565 124.191 28.3838 123.659 28.4994C122.295 28.7314 121.19 29.5734 121.207 30.9274C121.234 33.0754 120.02 33.4954 118.339 33.6044C116.815 33.7044 115.29 33.7924 113.766 33.9044C113.265 33.9103 112.767 33.9909 112.289 34.1434C110.389 34.9004 108.538 35.7494 106.631 36.4894C106.249 36.5917 105.919 36.833 105.706 37.166C105.492 37.499 105.411 37.8997 105.478 38.2894C105.54 40.5371 106.073 42.7467 107.043 44.7753C108.012 46.8039 109.397 48.6061 111.108 50.0654C111.23 50.2179 111.383 50.3418 111.558 50.4284C111.733 50.5151 111.925 50.5623 112.12 50.5669C112.315 50.5715 112.509 50.5333 112.687 50.4549C112.866 50.3766 113.025 50.26 113.154 50.1134C115.343 48.4544 116.847 46.0491 117.379 43.3545C117.618 42.1544 117.805 40.9465 118.088 39.3675L118.1 39.3704ZM140.591 59.1904C139.414 60.3464 139.309 62.6004 137.266 62.0654C136.495 61.8714 135.96 60.7454 135.315 60.0434L135.356 59.4434C134.411 59.9244 132.849 60.2274 132.656 60.9204C132.237 62.3934 131.991 64.3685 132.656 65.5784C133.399 66.9054 135.238 67.6514 136.666 68.5424C136.886 68.6268 137.123 68.6548 137.357 68.6239C137.591 68.593 137.813 68.5041 138.003 68.3654C139.565 66.7384 141.096 65.0714 142.503 63.3084C142.647 63.0308 142.723 62.7232 142.726 62.4105C142.729 62.0978 142.659 61.7888 142.52 61.5084C141.954 60.6739 141.306 59.898 140.586 59.1924L140.591 59.1904ZM143.191 51.9404C143.191 52.5404 143.58 53.1064 144.746 52.9634C147.587 52.6224 151.225 48.3864 151.046 45.5184C150.998 44.7234 150.896 43.9324 149.682 44.0824C146.682 44.4434 143.09 48.5024 143.182 51.9394L143.191 51.9404ZM128.034 30.6554L135.26 34.9935C135.645 32.9205 135.98 31.1364 136.304 29.4004C133 28.1484 131.745 28.3464 128.034 30.6554ZM101.697 85.0925L105.581 79.7004L100.367 81.1904C100.705 82.1874 101.114 83.3775 101.697 85.0925ZM149.369 43.5524C145.652 43.1394 141.907 47.6444 142.46 51.6414C143.21 47.7434 145.242 44.8924 149.369 43.5524ZM135.148 38.2934C135.766 38.123 136.31 37.7516 136.693 37.2379C137.077 36.7242 137.278 36.0974 137.266 35.4564C137.341 34.4744 136.778 34.2664 135.987 34.7134C135.446 35.1142 135.064 35.6939 134.911 36.3496C134.757 37.0052 134.841 37.694 135.148 38.2934ZM146.34 53.8474C149.853 52.7974 152.588 49.1075 152.253 45.8125C151.937 47.5109 151.24 49.1158 150.216 50.5074C149.193 51.8989 147.867 53.041 146.34 53.8484V53.8474Z" fill="#4C4C4C"/>
<path d="M126.284 69.5107C128.204 72.4947 130.342 74.9667 133.831 75.7757C130.748 74.4829 128.261 72.0827 126.86 69.0477L130.952 65.5287L137.752 70.1087C136.91 71.9677 136.03 74.1567 134.952 76.2467C131.231 83.4467 126.852 90.2287 120.952 95.8387C114.179 102.291 106.339 106.139 96.671 105.186C94.559 105.064 92.535 104.299 90.871 102.993C85.483 98.5257 81.183 93.2357 79.116 86.4637C78.434 84.2197 78.465 81.7637 78.165 79.4007C78.093 78.8247 77.998 78.2517 77.913 77.6787L77.5 77.7227L77.807 83.1447L77.555 83.1957C77.269 82.2477 76.985 81.2957 76.583 79.9697C75.625 83.4697 74.977 86.6057 76.027 89.8047C76.3577 90.6449 76.8823 91.3949 77.558 91.9937C79.1205 93.5777 80.0744 95.6619 80.252 97.8797C80.7353 100.006 81.3481 102.1 82.087 104.151C82.626 106.098 83.076 108.069 83.526 110.04C83.6109 110.682 83.652 111.329 83.649 111.977C85.422 108.546 86.991 105.515 88.563 102.477L88.802 102.603L80.079 121.417C58.243 108.217 38.269 92.6957 20.768 73.7787C43.168 51.8577 68.917 37.8007 100.909 36.5527C100.394 41.5867 101.284 45.9237 104.486 49.5727C106.246 51.5471 108.443 53.0837 110.901 54.0607L111.136 53.7197L109.39 52.6967C104.029 49.6647 101.205 45.1537 101.355 38.9157C101.406 36.6237 101.399 36.6157 103.66 36.8697C104.001 36.9077 104.315 36.9617 104.7 37.0167C104.826 38.1997 104.9 39.3257 105.079 40.4267C105.598 44.36 107.602 47.9459 110.679 50.4497C111.701 51.2603 112.363 52.4396 112.524 53.7337C113.18 57.9644 112.951 62.285 111.852 66.4227C111.427 67.7808 110.669 69.0106 109.646 69.9997C106.625 73.1237 103.456 76.1107 100.346 79.1497L99.746 78.8977C100.105 76.9151 100.462 74.9327 100.817 72.9507C99.4094 75.1575 98.9347 77.8324 99.497 80.3887C99.807 81.6537 100.271 82.8777 100.67 84.1197C101.089 85.4197 101.731 85.6377 102.934 84.8357C110.314 79.9357 117.728 75.0897 125.134 70.2267C125.468 70.0157 125.803 69.8147 126.284 69.5107ZM120.35 83.9257L120.285 83.8577L124.002 80.2017L120.35 83.9257Z" fill="#FFC880"/>
<path d="M118.093 39.371C117.81 40.95 117.622 42.157 117.373 43.354C116.844 46.0549 115.341 48.4668 113.148 50.13C113.018 50.2751 112.859 50.3902 112.68 50.4675C112.502 50.5449 112.308 50.5826 112.114 50.578C111.919 50.5735 111.728 50.5267 111.554 50.4411C111.379 50.3555 111.225 50.233 111.102 50.082C109.39 48.6237 108.004 46.8217 107.034 44.7929C106.064 42.7641 105.532 40.554 105.472 38.306C105.406 37.9163 105.487 37.5159 105.7 37.183C105.914 36.8501 106.243 36.6087 106.625 36.506C108.525 35.766 110.376 34.917 112.283 34.16C112.761 34.0075 113.259 33.9269 113.76 33.921C115.284 33.805 116.809 33.721 118.333 33.621C120.014 33.512 121.233 33.092 121.201 30.944C121.184 29.58 122.279 28.744 123.653 28.516C124.186 28.396 124.743 28.4668 125.229 28.7161C125.715 28.9654 126.097 29.3773 126.31 29.88C126.649 30.3864 127.109 30.801 127.647 31.087C129.959 32.506 132.302 33.877 134.647 35.275C134.43 35.8269 134.264 36.3976 134.152 36.98C134.063 37.952 134.2 38.753 135.54 38.811C136.106 38.835 136.652 39.418 137.351 39.834C135.598 41.696 132.321 40.376 131.925 43.445L126.97 42.081L126.861 42.494L131.148 43.78C130.029 46.321 128.038 47.112 125.664 46.167C123.161 45.0608 121.008 43.2922 119.437 41.052C119.069 40.582 118.693 40.125 118.093 39.371Z" fill="white"/>
<path d="M140.584 59.1914C141.304 59.8987 141.954 60.6743 142.524 61.5074C142.663 61.7877 142.733 62.0967 142.73 62.4094C142.727 62.7221 142.651 63.0297 142.507 63.3074C141.099 65.0704 139.567 66.7384 138.007 68.3644C137.817 68.5031 137.595 68.5919 137.361 68.6228C137.127 68.6538 136.89 68.6258 136.67 68.5414C135.241 67.6514 133.403 66.9044 132.66 65.5784C131.978 64.3674 132.227 62.3934 132.66 60.9204C132.86 60.2384 134.42 59.9204 135.36 59.4434L135.319 60.0434C135.964 60.7434 136.499 61.8714 137.27 62.0654C139.302 62.5844 139.408 60.3614 140.584 59.1914Z" fill="white"/>
<path d="M143.182 51.941C143.09 48.503 146.682 44.441 149.661 44.08C150.882 43.93 150.984 44.721 151.025 45.516C151.192 48.384 147.564 52.606 144.725 52.961C143.57 53.107 143.192 52.545 143.182 51.941Z" fill="white"/>
<path d="M128.034 30.6549C131.744 28.3459 132.989 28.1479 136.304 29.3999C135.98 31.1359 135.646 32.9189 135.261 34.9929L128.034 30.6549Z" fill="white"/>
<path d="M101.697 85.0912C101.114 83.3862 100.705 82.1792 100.367 81.1912L105.581 79.7012L101.697 85.0912Z" fill="#7C4DFF"/>
<path d="M149.369 43.5518C145.246 44.8918 143.214 47.7328 142.46 51.6408C141.904 47.6548 145.648 43.1388 149.369 43.5518Z" fill="white"/>
<path d="M135.148 38.2936C134.841 37.694 134.757 37.0049 134.91 36.3491C135.064 35.6933 135.446 35.1133 135.987 34.7126C136.778 34.2656 137.351 34.4735 137.266 35.4555C137.28 36.097 137.079 36.7248 136.695 37.239C136.312 37.7532 135.767 38.1244 135.148 38.2936Z" fill="white"/>
<path d="M146.34 53.8475C147.867 53.0402 149.192 51.8982 150.216 50.5069C151.24 49.1155 151.936 47.5107 152.253 45.8125C152.588 49.1075 149.853 52.7975 146.34 53.8475Z" fill="white"/>
<path d="M120.35 83.9222L123.999 80.1982L120.285 83.8542L120.35 83.9222Z" fill="#4C4C4C"/>
<path d="M133.221 36.2706C133.579 36.2706 133.869 35.9805 133.869 35.6226C133.869 35.2647 133.579 34.9746 133.221 34.9746C132.863 34.9746 132.573 35.2647 132.573 35.6226C132.573 35.9805 132.863 36.2706 133.221 36.2706Z" fill="#4C4C4C"/>
</svg>
