<svg width="194" height="60" viewBox="0 0 194 60" fill="none" xmlns="http://www.w3.org/2000/svg">
<path d="M130.387 27.8379C130.966 29.0568 131.545 30.2363 131.97 31.1013C127.028 32.7527 122.163 34.4041 117.182 36.0948C116.796 35.3084 116.449 34.522 116.024 33.5784C114.286 34.1682 112.587 34.7186 110.927 35.3477C109.73 35.7802 108.533 36.0161 108.186 34.3648C107.838 32.7134 109.228 32.7134 110.271 32.4382C110.618 32.3595 111.004 32.3595 111.468 32.5954C110.618 33.0279 109.769 33.4604 108.919 33.8929C108.958 34.0895 108.997 34.2861 108.997 34.4827C109.46 34.522 110.001 34.6793 110.425 34.5613C111.777 34.1682 113.128 33.6963 114.441 33.1852C114.904 32.9886 115.213 32.5168 115.599 32.2022C115.136 32.0843 114.672 31.9663 114.209 31.8484C114.016 31.8091 113.862 31.7697 113.36 31.6518C114.055 31.18 114.518 30.8261 115.174 30.3936C114.479 28.3097 113.784 26.1865 113.012 23.9454C111.004 24.6138 109.19 25.2822 107.375 25.872C106.371 26.1865 105.251 26.2652 105.136 24.9677C105.058 24.3386 105.792 23.3163 106.41 23.0411C108.147 22.2547 110.001 21.7043 111.931 21.0358C111.738 20.2102 111.584 19.4631 111.352 18.5195C115.252 17.1826 119.19 15.8458 123.09 14.4304C124.055 14.0765 124.866 13.2901 125.831 12.8576C126.526 12.5431 127.723 12.1892 128.07 12.5038C129.345 13.644 130.426 13.0149 131.584 12.6217C132.125 12.4251 132.665 12.2285 133.206 12.0319C135.909 11.1276 137.144 11.7174 138.109 14.391C138.264 14.8235 138.418 15.2167 138.65 15.7279C139.152 15.6099 139.538 15.492 139.963 15.4133C147.569 14.509 154.249 10.7738 161.392 8.41465C166.797 6.60601 172.28 5.9376 177.879 7.2351C183.709 8.57193 187.647 12.4251 188.342 17.3792C188.729 20.2495 187.802 22.8052 186.45 25.2036C185.678 26.5797 184.752 27.7986 183.979 29.1747C182.435 31.8877 183.053 34.2861 185.794 35.7802C187.377 36.6452 189.115 37.1564 190.775 37.7854C191.354 38.0214 192.92 38.1393 193.499 38.3359C193.384 38.6505 193.345 38.8864 193.306 38.8864C189.831 38.6505 185.64 37.5889 183.246 34.9152C181.624 33.1066 181.894 30.9047 183.014 28.8995C183.864 27.3661 184.945 25.9506 185.755 24.4172C189.115 18.2049 187.223 12.3072 180.813 9.39761C175.524 6.99919 170.079 7.19579 164.597 8.61125C162.936 9.04375 161.237 9.55489 159.616 10.184C155.06 11.914 150.542 13.7619 145.87 15.5706C146.025 16.1997 146.14 16.7108 146.295 17.3006C146.527 17.3006 146.72 17.3399 146.874 17.3006C151.778 15.3347 156.604 13.2508 161.546 11.4422C166.102 9.75148 170.813 8.68988 175.717 9.63352C177.3 9.94807 178.844 10.3806 180.311 11.0097C185.254 13.2115 186.759 17.4972 184.365 22.4513C183.67 23.9061 182.667 25.2036 181.817 26.5797C178.265 32.2416 179.925 37.3529 186.18 39.6334C187.802 40.2232 189.539 40.5377 191.2 41.0096C191.508 41.0882 191.779 41.3241 192.319 41.678C191.817 41.8746 191.586 42.0711 191.393 42.0318C189.037 41.3634 186.605 40.9702 184.404 39.9873C179.153 37.6675 177.531 32.3988 180.273 27.2875C180.89 26.1472 181.701 25.1249 182.358 23.9847C182.898 23.0411 183.516 22.0974 183.902 21.0752C185.331 17.1826 184.134 14.1551 180.466 12.2679C176.141 10.0267 171.469 9.67284 166.952 11.0883C160.002 13.3294 153.206 16.0817 146.372 18.7554C144.403 19.5417 142.588 20.7999 140.619 21.9008C140.658 22.0581 140.658 22.3727 140.735 22.6872C141.7 26.2259 140.272 28.1918 136.642 28.3884C135.522 28.467 134.403 28.6243 133.051 28.7422C131.7 24.7318 130.31 20.4854 128.881 16.239C128.727 15.7279 128.688 15.1381 128.379 14.7842C127.916 14.2338 127.298 13.8406 126.719 13.3688C126.565 14.0372 126.179 14.7842 126.333 15.374C126.835 17.3399 127.569 19.2272 128.186 21.1538C128.92 23.4343 129.615 25.754 130.31 28.0345C129.885 27.5627 129.229 27.1302 129.036 26.5797C127.723 22.8052 126.487 18.9913 125.175 15.0201C120.85 16.5142 116.757 17.9297 112.549 19.3845C113.244 21.5077 113.9 23.3949 114.557 25.3609C117.105 24.4959 119.46 23.7488 121.893 22.9231C122.24 24.1813 122.549 25.2036 122.858 26.2652C120.464 27.1302 118.147 27.9559 115.676 28.8209C116.371 30.9047 116.989 32.7134 117.684 34.6793C121.893 33.2638 125.947 31.927 129.808 30.6688C130.117 29.4893 130.233 28.6636 130.387 27.8379ZM133.901 27.9559C135.677 27.3268 137.337 26.9729 138.804 26.1865C139.384 25.872 140.04 24.6531 139.885 24.0634C138.92 20.682 137.839 17.3792 136.604 14.0765C136.41 13.526 135.252 12.8969 134.673 13.0149C132.935 13.3688 131.314 14.0765 129.499 14.6663C131.005 19.1879 132.395 23.3949 133.901 27.9559ZM140.194 20.4067C141.662 19.8956 143.013 19.5811 144.133 18.9126C144.673 18.5981 145.214 17.3399 144.982 16.9074C144.712 16.2783 143.631 15.6099 143.013 15.6492C141.662 15.8065 140.387 16.4356 138.997 16.9074C139.422 18.1656 139.77 19.1092 140.194 20.4067ZM115.059 25.9899C115.02 26.1865 114.943 26.3831 114.904 26.5797C115.445 26.8943 116.062 27.5234 116.526 27.4054C118.263 27.0122 119.924 26.3831 121.584 25.7934C121.738 25.754 121.854 25.5574 122.086 25.3609C121.815 24.889 121.584 24.3779 121.275 23.8274C119.151 24.5745 117.105 25.2822 115.059 25.9899ZM106.564 25.2429C108.456 24.5745 110.232 23.9847 111.97 23.3163C112.163 23.2377 112.433 22.6872 112.356 22.6086C112.163 22.3727 111.738 22.0581 111.506 22.1368C109.73 22.6872 107.993 23.3163 106.255 23.9454C106.062 24.024 105.753 24.5352 105.83 24.6531C105.985 24.9284 106.332 25.0856 106.564 25.2429Z" fill="#7C4DFF"/>
<path d="M62.1645 35.8186C63.5931 35.2681 65.0217 34.757 66.4117 34.1672C66.7206 34.0493 67.1453 33.7347 67.2225 33.4595C68.072 30.7465 70.3886 30.3927 72.5123 29.7243C72.6281 29.8815 72.7439 30.0781 72.8598 30.2354C72.242 30.6286 71.7014 31.1004 71.045 31.3756C68.3423 32.4766 67.8017 33.5381 68.7284 36.3297C69.6936 39.1607 70.6589 41.9916 71.6628 44.7832C72.4736 47.103 73.7478 47.7714 75.9486 47.0243C78.5356 46.1593 81.1225 45.1764 83.9025 44.1934C82.1264 39.0034 80.4275 34.01 78.6514 28.7413C77.9178 29.0559 77.3 29.2918 76.7209 29.5277C76.9911 28.9772 77.1456 28.3481 77.5317 27.8763C77.8792 27.3652 78.4584 27.0506 78.8445 26.5788C79.887 25.3599 81.7017 25.2027 82.2422 26.5395C83.5164 29.6063 84.5203 32.8304 85.6014 35.9759C85.4084 36.0545 85.2153 36.1725 84.9836 36.2511C84.752 35.8186 84.4045 35.4647 84.25 34.9929C83.4006 32.5945 82.667 30.1961 81.7403 27.837C81.5472 27.3258 80.6978 27.0899 80.1186 26.7361C80.0414 27.3652 79.7711 27.9943 79.887 28.584C80.8522 33.7741 83.4006 38.4136 84.9836 43.407C85.1381 43.9182 85.9489 44.272 86.4509 44.6652C86.5667 43.9968 86.9528 43.2498 86.7984 42.66C86.2578 40.6941 85.5242 38.8068 84.8678 36.8802C85.0609 36.8016 85.2153 36.7229 85.4084 36.6443C85.64 36.9588 85.9489 37.2341 86.1034 37.5879C86.7211 39.3179 87.3775 41.0086 87.8795 42.778C88.4972 44.8225 87.2231 46.12 85.2153 45.6482C84.5975 45.4909 83.8253 45.4909 83.2075 45.6875C80.8909 46.4346 78.6128 47.3389 76.2961 48.0859C75.4081 48.3612 74.1725 48.6364 73.5161 48.2432C71.8559 47.2209 70.4659 47.85 68.96 48.4005C65.0989 49.7766 64.9059 49.698 62.8209 46.0807C59.9637 46.7491 57.0678 47.4175 54.172 48.1646C50.3881 49.1475 46.5656 49.3834 42.7431 48.6364C36.4881 47.4175 33.3992 42.2668 35.2912 36.0938C35.9476 34.01 36.9515 32.0047 37.8395 29.9602C39.9631 24.9667 38.6117 21.8213 33.5151 20.0913C29.8856 18.8331 26.2176 18.951 22.7426 20.2879C18.6112 21.8606 14.6343 23.8265 10.6187 25.7138C8.03176 26.8933 5.52204 28.1909 2.97371 29.3704C2.35593 29.6456 1.69954 29.7636 0.850098 29.567C1.08176 29.3311 1.27482 28.9772 1.5451 28.8593C5.7537 26.7754 10.0009 24.7702 14.2095 22.6863C18.2637 20.6811 22.3565 18.6365 26.9126 18.4792C29.3451 18.4006 31.932 18.6365 34.2873 19.3835C39.4226 21.0349 40.8512 24.259 38.8048 30.2354C38.0712 32.3979 36.8742 34.3638 36.2178 36.5263C34.5962 41.7557 37.0287 46.1593 42.2798 47.4568C46.6814 48.5577 51.0831 48.2432 55.3689 46.6705C55.8323 46.5132 56.1025 45.8841 56.45 45.4516C55.9481 45.373 55.4076 45.0584 54.9442 45.1764C51.5078 46.12 47.9942 46.5525 44.4806 45.8448C43.4767 45.6482 42.4728 45.4123 41.5462 44.9798C38.1098 43.4857 36.7584 40.4582 37.8781 36.8016C38.2256 35.7007 38.7276 34.6391 39.1909 33.5775C39.3453 33.6168 39.5384 33.6561 39.6928 33.6954C39.4998 34.5211 39.4226 35.3468 39.1523 36.0938C37.5692 40.5368 39.0751 43.4857 43.5926 44.6259C47.4923 45.6089 51.3534 45.255 55.1759 44.0361C55.4076 43.9575 55.6778 43.9182 55.9095 43.7609C57.5698 42.542 59.1914 41.2839 61.0062 39.9077C60.5814 38.5709 60.1567 36.8409 62.1645 35.7007C61.2378 40.065 63.7862 43.525 65.0603 47.3389C65.1761 47.6534 65.987 48.0073 66.3731 47.8893C67.9562 47.4962 69.462 46.9064 71.0836 46.3952C69.7323 42.4241 68.4967 38.8461 67.2998 35.3075C65.3692 35.2682 63.902 37.2341 62.1645 35.8186ZM61.4695 41.4018C60.1953 41.8736 59.037 42.0309 58.2262 42.66C57.647 43.1318 57.1064 44.4293 57.3381 45.0191C57.5698 45.6482 58.8053 46.1986 59.5775 46.1593C60.62 46.12 61.6239 45.4909 62.7437 45.0584C62.2803 43.8395 61.9328 42.778 61.4695 41.4018Z" fill="#7C4DFF"/>
<path d="M0.5 26.6192C1.61972 26.0687 2.73944 25.5969 3.82055 25.0071C7.21833 23.1985 10.5775 21.2719 14.0139 19.5026C18.2225 17.3794 22.5855 15.6101 27.3347 15.2562C31.5047 14.9416 35.3658 16.0032 38.8408 18.3623C39.3041 18.6769 39.613 19.1487 39.7675 19.9351C39.5358 19.8958 39.2655 19.9351 39.1111 19.8171C34.0144 15.8853 28.3 15.0989 22.5083 17.2614C17.0642 19.306 11.8903 22.1369 6.60055 24.6139C4.67 25.5183 2.77805 26.5012 0.8475 27.4449C0.770278 27.209 0.615833 26.9337 0.5 26.6192Z" fill="#7C4DFF"/>
<path d="M96.5636 0.117955C96.2933 4.01047 96.0617 7.86367 95.7914 11.7562C95.4825 11.7169 95.2122 11.7169 94.9033 11.6775C95.135 7.78503 95.3667 3.89251 95.5983 0C95.9072 0.0393183 96.2547 0.0786367 96.5636 0.117955Z" fill="#7C4DFF"/>
<path d="M109.768 58.4275C108.301 55.0068 106.795 51.6254 105.328 48.2047C105.637 48.0868 105.907 47.9295 106.216 47.8115C107.683 51.2322 109.189 54.6136 110.656 58.0343C110.348 58.1522 110.039 58.2702 109.768 58.4275Z" fill="#7C4DFF"/>
<path d="M81.2747 5.34766C83.4755 8.13926 85.6763 10.9309 87.8772 13.6831C87.6455 13.8797 87.3752 14.0763 87.1435 14.2729C84.9427 11.4813 82.7033 8.72903 80.5024 5.93743C80.7727 5.74084 81.0044 5.54425 81.2747 5.34766Z" fill="#7C4DFF"/>
<path d="M80.5797 20.6422C77.4908 19.4626 74.3633 18.2831 71.2744 17.1035C71.3902 16.789 71.5061 16.5138 71.5833 16.1992C74.7108 17.3788 77.7997 18.519 80.9272 19.6985C80.8114 20.0131 80.6955 20.3276 80.5797 20.6422Z" fill="#7C4DFF"/>
<path d="M120.734 47.0641C117.877 45.57 115.02 44.0759 112.201 42.5818C112.356 42.3066 112.471 41.992 112.626 41.7168C115.483 43.2109 118.302 44.705 121.159 46.1598C121.005 46.4743 120.889 46.7889 120.734 47.0641Z" fill="#7C4DFF"/>
<path d="M112.009 7.47089C109.885 9.82999 107.8 12.1891 105.676 14.5482C105.445 14.3123 105.175 14.1157 104.943 13.8798C107.066 11.5207 109.151 9.2009 111.275 6.8418C111.507 6.99907 111.777 7.23498 112.009 7.47089Z" fill="#7C4DFF"/>
<path d="M89.7308 49.2262C88.0319 51.9392 86.2944 54.6522 84.5955 57.3651C84.3252 57.2079 84.0549 57.0113 83.7847 56.854C85.4836 54.141 87.1824 51.4281 88.8813 48.6758C89.1902 48.8724 89.4605 49.069 89.7308 49.2262Z" fill="#7C4DFF"/>
<path d="M97.722 50.0921C97.5675 53.3948 97.4131 56.6975 97.2972 60.0003C97.1814 60.0003 97.027 60.0003 96.9111 59.9609C96.9111 56.6582 96.9111 53.3555 96.9111 50.0527C97.1814 50.0527 97.4517 50.0921 97.722 50.0921Z" fill="#7C4DFF"/>
<path d="M76.7192 29.567C75.6381 29.8815 74.557 30.1568 73.5145 30.4713C73.3987 30.3533 73.2828 30.2354 73.167 30.0781C73.6689 29.6849 74.1323 29.0165 74.6342 28.9772C75.2906 28.8986 76.0242 29.3311 76.7192 29.567Z" fill="#7C4DFF"/>
<path d="M64.5942 39.082C65.2506 41.0479 65.907 42.9745 66.5634 44.9405C66.409 44.9798 66.2159 45.0584 66.0614 45.0977C65.4051 43.1711 64.7487 41.2445 64.0923 39.3573C64.2467 39.2393 64.4398 39.1607 64.5942 39.082Z" fill="#7C4DFF"/>
<path d="M115.096 19.6991C117.181 18.9914 119.228 18.323 121.313 17.6152C121.351 17.7725 121.428 17.9298 121.467 18.0477C119.421 18.7555 117.336 19.4632 115.289 20.1709C115.212 20.0137 115.135 19.8564 115.096 19.6991Z" fill="#7C4DFF"/>
<path d="M134.559 16.7109C135.176 18.5982 135.833 20.4855 136.451 22.4121C136.296 22.4514 136.142 22.5301 135.987 22.5694C135.331 20.6821 134.713 18.7948 134.057 16.9075C134.25 16.8682 134.404 16.7896 134.559 16.7109Z" fill="#7C4DFF"/>
</svg>
